<?xml version="1.0" encoding="UTF-8" standalone="no"?>
<!-- Created with Inkscape (http://www.inkscape.org/) -->

<svg
   xmlns:dc="http://purl.org/dc/elements/1.1/"
   xmlns:cc="http://creativecommons.org/ns#"
   xmlns:rdf="http://www.w3.org/1999/02/22-rdf-syntax-ns#"
   xmlns:svg="http://www.w3.org/2000/svg"
   xmlns="http://www.w3.org/2000/svg"
   xmlns:sodipodi="http://sodipodi.sourceforge.net/DTD/sodipodi-0.dtd"
   xmlns:inkscape="http://www.inkscape.org/namespaces/inkscape"
   version="1.1"
   id="svg2"
   width="500"
   height="500"
   viewBox="0 0 500 500"
   sodipodi:docname="all-svgs.svg"
   inkscape:export-filename="C:\Users\Adil\adilnaqvi\src\media\icons\pak-map.png"
   inkscape:export-xdpi="96"
   inkscape:export-ydpi="96"
   inkscape:version="0.92.4 (5da689c313, 2019-01-14)">
  <metadata
     id="metadata8">
    <rdf:RDF>
      <cc:Work
         rdf:about="">
        <dc:format>image/svg+xml</dc:format>
        <dc:type
           rdf:resource="http://purl.org/dc/dcmitype/StillImage" />
        <dc:title></dc:title>
      </cc:Work>
    </rdf:RDF>
  </metadata>
  <defs
     id="defs6">
    <clipPath
       clipPathUnits="userSpaceOnUse"
       id="clipPath83">
      <g
         id="g87"
         transform="matrix(-0.77452862,0,0,0.77452862,483.50834,436.3829)">
        <path
           id="path85"
           d="m 152.9,-101.1 c 45,35.6 81.1,99.2 63,139.2 -18.1,39.9 -90.3,56.3 -156.9,91 -66.7,34.6 -127.7,87.4 -169.6,76.5 -41.9,-10.9 -64.6,-85.7 -64.5,-147.7 0.2,-62.1 23.1,-111.4 56.1,-144.3 33,-32.9 76,-49.2 124.5,-53.6 48.4,-4.4 102.4,3.3 147.4,38.9 z"
           inkscape:connector-curvature="0"
           style="fill:#ffb4bc" />
      </g>
    </clipPath>
  </defs>
  <sodipodi:namedview
     pagecolor="#ffffff"
     bordercolor="#666666"
     borderopacity="1"
     objecttolerance="10"
     gridtolerance="10"
     guidetolerance="10"
     inkscape:pageopacity="0"
     inkscape:pageshadow="2"
     inkscape:window-width="1366"
     inkscape:window-height="705"
     id="namedview4"
     showgrid="false"
     inkscape:zoom="1"
     inkscape:cx="327.62164"
     inkscape:cy="248.77954"
     inkscape:window-x="-8"
     inkscape:window-y="-8"
     inkscape:window-maximized="1"
     inkscape:current-layer="svg2" />
  <g
     id="g4802"
     transform="matrix(0.25339367,0,0,0.25339367,89.834934,271.28816)"
     style="opacity:0.5;fill:#0000ff">
    <path
       id="path4747"
       d="m 486.26508,755.66113 v -99.01846 c 0,-0.60127 -0.0537,-1.18931 -0.12915,-1.77056 -0.0186,-0.13455 -0.0399,-0.26781 -0.0613,-0.40311 -0.0944,-0.55982 -0.20898,-1.11153 -0.36828,-1.6458 -0.006,-0.0217 -0.007,-0.0419 -0.012,-0.0636 -0.17558,-0.57861 -0.395,-1.13579 -0.64278,-1.67811 -0.0457,-0.1005 -0.0965,-0.19968 -0.14415,-0.30009 -0.2492,-0.5102 -0.52235,-1.007 -0.83306,-1.47837 -0.0105,-0.0228 -0.0251,-0.0483 -0.0402,-0.0716 l -0.0367,-0.0561 c -0.006,-0.0105 -0.0179,-0.0254 -0.0252,-0.0387 l -35.43682,-53.35815 -12.04416,-218.36589 37.68764,-52.65538 c 0.0401,-0.0544 0.0726,-0.114 0.11115,-0.16887 0.0867,-0.1248 0.16764,-0.25188 0.25047,-0.38044 0.1311,-0.20352 0.25563,-0.40833 0.37618,-0.61874 0.0832,-0.1446 0.164,-0.28923 0.24117,-0.43518 0.10935,-0.21172 0.2102,-0.42592 0.30927,-0.6415 0.0669,-0.14505 0.1377,-0.29064 0.19962,-0.43944 0.1398,-0.34011 0.26786,-0.68687 0.38033,-1.03779 0.0468,-0.1455 0.0819,-0.29615 0.12405,-0.44339 0.0669,-0.23971 0.13065,-0.47946 0.18607,-0.72318 0.0345,-0.15979 0.066,-0.32148 0.0965,-0.48217 0.0464,-0.25715 0.0858,-0.51563 0.1179,-0.77551 0.0177,-0.13995 0.0376,-0.27975 0.0486,-0.42182 0.0372,-0.40566 0.0618,-0.81298 0.0618,-1.22415 V 203.87586 c 0,-7.39561 -5.99728,-13.39282 -13.3927,-13.39282 h -69.65429 c -7.39563,0 -13.39292,5.99721 -13.39292,13.39282 v 36.95747 h -30.20558 v -36.95747 c 0,-7.3956 -5.9973,-13.39283 -13.39272,-13.39283 h -69.65399 c -7.39561,0 -13.39297,5.99723 -13.39297,13.39283 v 36.95738 H 223.3919 v -36.95766 c 0,-7.3956 -5.99747,-13.39282 -13.39284,-13.39282 h -69.65375 c -7.39557,0 -13.39301,5.99722 -13.39301,13.39282 v 113.08781 c 0,0.40983 0.0237,0.81699 0.0619,1.22277 0.0105,0.1416 0.0324,0.28261 0.0503,0.42442 0.0322,0.25993 0.0709,0.51709 0.11745,0.77296 0.0293,0.16245 0.0602,0.32399 0.0965,0.4833 0.0533,0.24384 0.11775,0.48363 0.18595,0.72335 0.0416,0.14805 0.0777,0.29737 0.12435,0.44328 0.11235,0.35086 0.23966,0.69772 0.38028,1.03795 0.0614,0.15015 0.1335,0.2946 0.20094,0.44066 0.0984,0.21561 0.19826,0.42976 0.30801,0.64011 0.078,0.14685 0.1599,0.29328 0.24113,0.43672 0.1182,0.20882 0.2452,0.4151 0.37503,0.61859 0.0832,0.1266 0.16393,0.25584 0.25047,0.38046 0.0391,0.0564 0.0726,0.114 0.1116,0.16884 l 37.68736,52.65542 -12.04429,218.36604 -35.4359,53.35819 c -0.006,0.0105 -0.012,0.0254 -0.0252,0.0389 l -0.0367,0.0566 c -0.0105,0.0225 -0.0247,0.0477 -0.0402,0.0716 -0.30951,0.47279 -0.58401,0.96818 -0.8331,1.47842 -0.0485,0.1005 -0.0984,0.19816 -0.14535,0.30004 -0.24759,0.54236 -0.46849,1.09955 -0.64292,1.67811 -0.006,0.0212 -0.008,0.0419 -0.012,0.0633 -0.1599,0.53433 -0.27722,1.08611 -0.36825,1.64576 -0.0208,0.13335 -0.0426,0.26806 -0.0619,0.40329 -0.0765,0.57994 -0.12915,1.16795 -0.12915,1.77056 v 99.01852 c -7.39545,0 -13.39281,5.99727 -13.39281,13.39282 0,7.39545 5.99736,13.39281 13.39281,13.39281 h 368.90308 c 7.39562,0 13.39281,-5.99736 13.39281,-13.39281 0,-7.39555 -5.99461,-13.39282 -13.39002,-13.39282 z M 193.44433,386.8429 h 216.73601 l 11.02778,199.92003 H 182.41806 Z M 166.3976,330.35735 h 172.96433 c 7.39552,0 13.39285,-5.99727 13.39285,-13.39276 0,-7.39565 -5.99733,-13.39287 -13.39285,-13.39287 h -185.626 v -86.30193 h 42.86779 v 36.95736 c 0,7.39556 5.99736,13.3929 13.39293,13.3929 h 56.99045 c 7.39539,0 13.39278,-5.99734 13.39278,-13.3929 v -36.95736 h 42.86775 v 36.95736 c 0,7.39556 5.99731,13.3929 13.39289,13.3929 h 56.99046 c 7.39535,0 13.39277,-5.99734 13.39277,-13.3929 v -36.95736 h 42.86789 v 86.30193 h -70.34867 c -7.39556,0 -13.39267,5.99722 -13.39267,13.39287 0,7.39549 5.99711,13.39276 13.39267,13.39276 h 57.68686 l -21.25701,29.69996 H 187.65468 Z m -22.2522,339.67814 h 40.17837 c 7.39562,0 13.39291,-5.99728 13.39291,-13.39282 0,-7.39555 -5.99729,-13.39285 -13.39291,-13.39285 h -28.59895 l 19.7249,-29.7012 h 252.72669 l 19.72485,29.7012 H 224.50238 c -7.39559,0 -13.39279,5.9973 -13.39279,13.39285 0,7.39554 5.9972,13.39282 13.39279,13.39282 h 234.97568 v 85.62564 H 144.1454 Z"
       inkscape:connector-curvature="0"
       style="fill:#0000ff;stroke-width:1.33928263" />
    <g
       id="g4749"
       style="fill:#0000ff">
</g>
    <g
       id="g4751"
       style="fill:#0000ff">
</g>
    <g
       id="g4753"
       style="fill:#0000ff">
</g>
    <g
       id="g4755"
       style="fill:#0000ff">
</g>
    <g
       id="g4757"
       style="fill:#0000ff">
</g>
    <g
       id="g4759"
       style="fill:#0000ff">
</g>
    <g
       id="g4761"
       style="fill:#0000ff">
</g>
    <g
       id="g4763"
       style="fill:#0000ff">
</g>
    <g
       id="g4765"
       style="fill:#0000ff">
</g>
    <g
       id="g4767"
       style="fill:#0000ff">
</g>
    <g
       id="g4769"
       style="fill:#0000ff">
</g>
    <g
       id="g4771"
       style="fill:#0000ff">
</g>
    <g
       id="g4773"
       style="fill:#0000ff">
</g>
    <g
       id="g4775"
       style="fill:#0000ff">
</g>
    <g
       id="g4777"
       style="fill:#0000ff">
</g>
  </g>
  <g
     id="g4865"
     transform="matrix(0.19531313,0,0,0.19531313,654.0031,359.99928)"
     style="opacity:0.5;fill:#000000">
    <g
       id="g4808"
       style="fill:#000000">
	<g
   id="g4806"
   style="fill:#000000">
		<path
   id="path4804"
   d="M 507.602,131.672 380.323,4.393 c -5.857,-5.858 -15.355,-5.858 -21.213,0 l -65.64,65.64 c -5.858,5.858 -5.858,15.355 0,21.213 l 6.498,6.498 -171.68,85.84 c -3.286,1.643 -5.855,4.435 -7.219,7.846 L 1.121,491.297 c -0.018,0.044 -0.035,0.087 -0.052,0.131 -0.154,0.384 -0.287,0.773 -0.407,1.164 -0.26,0.848 -0.465,1.831 -0.568,2.769 -0.441,4.033 0.741,7.883 3.113,10.897 0.088,0.112 0.175,0.225 0.267,0.335 3.611,4.334 9.154,6.135 14.351,5.136 0.384,-0.073 0.763,-0.171 1.142,-0.275 0.079,-0.022 0.16,-0.035 0.239,-0.059 0.506,-0.147 1.005,-0.322 1.496,-0.523 L 320.567,390.926 c 3.411,-1.364 6.203,-3.933 7.846,-7.219 l 85.84,-171.68 6.498,6.498 c 2.929,2.929 6.768,4.394 10.606,4.394 3.838,0 7.678,-1.464 10.606,-4.394 l 65.64,-65.64 c 5.857,-5.857 5.857,-15.354 -0.001,-21.213 z M 304.13,365.19 77.276,455.932 205.606,327.602 c 5.875,2.817 12.451,4.398 19.389,4.398 24.813,0 45,-20.187 45,-45 0,-24.813 -20.187,-45 -45,-45 -24.813,0 -45,20.187 -45,45 0,6.938 1.581,13.515 4.398,19.389 l -128.33,128.33 90.741,-226.854 175.524,-87.761 69.563,69.563 z M 209.995,287 c 0,-8.271 6.729,-15 15,-15 8.271,0 15,6.729 15,15 0,8.271 -6.729,15 -15,15 -8.271,0 -15,-6.729 -15,-15 z M 431.356,186.705 420.557,175.906 c -0.009,-0.009 -0.018,-0.018 -0.027,-0.027 L 336.117,91.466 c -0.011,-0.011 -0.022,-0.022 -0.033,-0.033 L 325.29,80.64 369.716,36.214 475.782,142.28 Z"
   inkscape:connector-curvature="0"
   style="fill:#000000" />

	</g>

</g>
    <g
       id="g4810"
       style="fill:#000000">
</g>
    <g
       id="g4812"
       style="fill:#000000">
</g>
    <g
       id="g4814"
       style="fill:#000000">
</g>
    <g
       id="g4816"
       style="fill:#000000">
</g>
    <g
       id="g4818"
       style="fill:#000000">
</g>
    <g
       id="g4820"
       style="fill:#000000">
</g>
    <g
       id="g4822"
       style="fill:#000000">
</g>
    <g
       id="g4824"
       style="fill:#000000">
</g>
    <g
       id="g4826"
       style="fill:#000000">
</g>
    <g
       id="g4828"
       style="fill:#000000">
</g>
    <g
       id="g4830"
       style="fill:#000000">
</g>
    <g
       id="g4832"
       style="fill:#000000">
</g>
    <g
       id="g4834"
       style="fill:#000000">
</g>
    <g
       id="g4836"
       style="fill:#000000">
</g>
    <g
       id="g4838"
       style="fill:#000000">
</g>
  </g>
</svg>
